<svg width="48" height="47" viewBox="0 0 48 47" fill="none" xmlns="http://www.w3.org/2000/svg">
<g clip-path="url(#clip0_1238_637)">
<path d="M43.142 10.04H4.72196C3.0872 10.04 1.76196 11.3653 1.76196 13V42.14C1.76196 43.7748 3.0872 45.1 4.72196 45.1H43.142C44.7767 45.1 46.102 43.7748 46.102 42.14V13C46.102 11.3653 44.7767 10.04 43.142 10.04Z" stroke="#00AFB5" stroke-width="2" stroke-miterlimit="10"/>
<path d="M14.0588 10.2V4.56C14.0588 3.14 15.1988 2 16.6188 2H31.5588C32.9788 2 34.1188 3.14 34.1188 4.56V10.2" stroke="#00AFB5" stroke-width="4" stroke-miterlimit="10"/>
<path d="M10.5779 27.8203H15.7179C15.9779 27.8203 16.1779 28.0203 16.1779 28.2803V33.8803C16.1779 35.5603 14.8179 36.9203 13.1379 36.9203C11.4579 36.9203 10.0979 35.5603 10.0979 33.8803V28.2803C10.0979 28.0203 10.2979 27.8203 10.5579 27.8203H10.5779Z" stroke="#00AFB5" stroke-width="2" stroke-miterlimit="10"/>
<path d="M31.5623 27.8203H36.7023C36.9623 27.8203 37.1623 28.0203 37.1623 28.2803V33.8803C37.1623 35.5603 35.8023 36.9203 34.1223 36.9203C32.4423 36.9203 31.0823 35.5603 31.0823 33.8803V28.2803C31.0823 28.0203 31.2823 27.8203 31.5423 27.8203H31.5623Z" stroke="#00AFB5" stroke-width="2" stroke-miterlimit="10"/>
<path d="M6.77759 15.5195H18.1576" stroke="#00AFB5" stroke-width="2" stroke-linecap="round" stroke-linejoin="round"/>
<path d="M21.9573 15.3604H23.9373" stroke="#00AFB5" stroke-width="2" stroke-linecap="round" stroke-linejoin="round"/>
<path d="M1.5979 31H9.3579" stroke="#00AFB5" stroke-width="2" stroke-miterlimit="10"/>
<path d="M37.762 31H45.502" stroke="#00AFB5" stroke-width="2" stroke-miterlimit="10"/>
<path d="M16.801 31H30.921" stroke="#00AFB5" stroke-width="2" stroke-miterlimit="10"/>
</g>
<defs>
<clipPath id="clip0_1238_637">
<rect width="46.48" height="46.56" fill="white" transform="translate(0.76001)"/>
</clipPath>
</defs>
</svg>
