<svg width="48" height="47" viewBox="0 0 48 47" fill="none" xmlns="http://www.w3.org/2000/svg">
<g clip-path="url(#clip0_1238_650)">
<path d="M15.3844 26.8203V35.3403C15.3844 37.8803 13.3244 39.9403 10.7844 39.9403H3.48438" stroke="#00AFB5" stroke-width="2" stroke-miterlimit="10"/>
<path d="M8.88563 45.5403L3.26562 39.9403L8.88563 34.3203" stroke="#00AFB5" stroke-width="2" stroke-miterlimit="10"/>
<path d="M33.625 20.12V11.6C33.625 9.06 35.685 7 38.225 7H45.545" stroke="#00AFB5" stroke-width="2" stroke-miterlimit="10"/>
<path d="M40.1484 1.41992L45.7684 7.01992L40.1484 12.6199" stroke="#00AFB5" stroke-width="2" stroke-miterlimit="10"/>
<path d="M24.3897 37.92C32.3757 37.92 38.8497 31.446 38.8497 23.46C38.8497 15.474 32.3757 9 24.3897 9C16.4036 9 9.92969 15.474 9.92969 23.46C9.92969 31.446 16.4036 37.92 24.3897 37.92Z" fill="#00AFB5" stroke="#00AFB5"/>
<path d="M24.5266 22.2797C26.9014 22.2797 28.8266 20.3545 28.8266 17.9797C28.8266 15.6049 26.9014 13.6797 24.5266 13.6797C22.1517 13.6797 20.2266 15.6049 20.2266 17.9797C20.2266 20.3545 22.1517 22.2797 24.5266 22.2797Z" fill="white"/>
<path d="M24.3862 36.22C28.3862 36.22 31.9462 34.38 34.2862 31.52C34.2862 30.68 34.2862 30.3 34.2862 30.3L31.0263 26.88C29.5663 25.34 27.5262 24.46 25.4062 24.46H23.7862C21.6662 24.46 19.6263 25.34 18.1663 26.88L14.9062 30.3V32C17.2462 34.6 20.6262 36.24 24.3862 36.24V36.22Z" fill="white"/>
</g>
<defs>
<clipPath id="clip0_1238_650">
<rect width="46.34" height="46.26" fill="white" transform="translate(0.830078)"/>
</clipPath>
</defs>
</svg>
