<svg width="24" height="24" viewBox="0 0 24 24" fill="none" xmlns="http://www.w3.org/2000/svg">
<g clip-path="url(#clip0_1608_2986)">
<path d="M2.88965 15.28C2.88965 15.28 4.73965 13.83 5.14965 13.5C5.55965 13.17 6.34965 12.94 7.42965 13.2C8.50965 13.46 13.2696 14.88 13.2696 14.88C13.2696 14.88 14.4296 15.44 14.1696 16.49C13.9096 17.54 13.6796 18.4 12.5196 18.17C11.3596 17.94 8.84965 17.35 8.84965 17.35" stroke="white" stroke-miterlimit="10" stroke-linecap="round"/>
<path d="M4.79004 21.4L5.33004 21.17C6.22004 20.7 7.25004 20.56 8.24004 20.77L10.48 21.38C11.44 21.58 12.45 21.43 13.32 20.96L21.75 16.27C22.55 15.83 22.83 14.81 22.35 14.03C21.9 13.29 20.94 13.04 20.18 13.47L14.16 16.85" stroke="white" stroke-miterlimit="10"/>
<path d="M1.09954 14.44L1.66954 14.28C2.09954 14.16 2.54954 14.41 2.66954 14.84L4.51954 21.44C4.63954 21.86 4.40954 22.29 3.99954 22.43L3.37954 22.64C2.92954 22.79 2.44954 22.54 2.32954 22.08L0.519541 15.43C0.399541 15 0.659541 14.55 1.08954 14.43L1.09954 14.44Z" stroke="white" stroke-miterlimit="10"/>
<path d="M14.8904 12.11C18.0605 12.11 20.6304 9.54012 20.6304 6.37C20.6304 3.19989 18.0605 0.630005 14.8904 0.630005C11.7203 0.630005 9.15039 3.19989 9.15039 6.37C9.15039 9.54012 11.7203 12.11 14.8904 12.11Z" fill="white" stroke="white" stroke-miterlimit="10"/>
<path d="M17 3.78546H14.7558C13.9506 3.78546 13.3037 4.43232 13.3037 5.23759C13.3037 6.04287 13.9506 6.68972 14.7558 6.68972H15.4951" stroke="#097980" stroke-width="1.32012" stroke-miterlimit="10"/>
<path d="M13 9.58102H15.4554C16.2607 9.58102 16.9076 8.93416 16.9076 8.12889C16.9076 7.32362 16.2607 6.67676 15.4554 6.67676H15.1914" stroke="#097980" stroke-width="1.32012" stroke-miterlimit="10"/>
<path d="M15.1514 1L15.1514 3.64024" stroke="#097980" stroke-width="1.32012" stroke-miterlimit="10"/>
<path d="M15.1514 9.59961V12.0996" stroke="#097980" stroke-width="1.32012" stroke-miterlimit="10"/>
</g>
<defs>
<clipPath id="clip0_1608_2986">
<rect width="23.08" height="23.06" fill="white" transform="translate(0 0.130005)"/>
</clipPath>
</defs>
</svg>
