<svg width="48" height="47" viewBox="0 0 48 47" fill="none" xmlns="http://www.w3.org/2000/svg">
<g clip-path="url(#clip0_1238_704)">
<path d="M46.04 1.45996H1.85999V45.12H46.04V1.45996Z" stroke="#00AFB5" stroke-width="2" stroke-miterlimit="10"/>
<path d="M2.02405 13.2002H46.044" stroke="#00AFB5" stroke-width="2" stroke-miterlimit="10"/>
<path d="M31.3209 7.55957H40.9009" stroke="#00AFB5" stroke-width="2" stroke-linecap="round" stroke-linejoin="round"/>
<path d="M19.8594 9.44016C20.7651 9.44016 21.4994 8.7059 21.4994 7.80016C21.4994 6.89441 20.7651 6.16016 19.8594 6.16016C18.9536 6.16016 18.2194 6.89441 18.2194 7.80016C18.2194 8.7059 18.9536 9.44016 19.8594 9.44016Z" stroke="#00AFB5" stroke-width="2" stroke-miterlimit="10"/>
<path d="M14.3437 9.44016C15.2495 9.44016 15.9837 8.7059 15.9837 7.80016C15.9837 6.89441 15.2495 6.16016 14.3437 6.16016C13.438 6.16016 12.7037 6.89441 12.7037 7.80016C12.7037 8.7059 13.438 9.44016 14.3437 9.44016Z" stroke="#00AFB5" stroke-width="2" stroke-miterlimit="10"/>
<path d="M8.80467 9.44016C9.71042 9.44016 10.4447 8.7059 10.4447 7.80016C10.4447 6.89441 9.71042 6.16016 8.80467 6.16016C7.89893 6.16016 7.16467 6.89441 7.16467 7.80016C7.16467 8.7059 7.89893 9.44016 8.80467 9.44016Z" stroke="#00AFB5" stroke-width="2" stroke-miterlimit="10"/>
<path d="M32.4034 24.9805H16.0034C15.1087 24.9805 14.3834 25.7058 14.3834 26.6005V36.1205C14.3834 37.0152 15.1087 37.7405 16.0034 37.7405H32.4034C33.2981 37.7405 34.0234 37.0152 34.0234 36.1205V26.6005C34.0234 25.7058 33.2981 24.9805 32.4034 24.9805Z" stroke="#00AFB5" stroke-width="2" stroke-miterlimit="10"/>
<path d="M21.2584 29.6601V20.9401C21.2584 19.1001 22.7384 17.6201 24.5784 17.6201C26.4184 17.6201 27.8984 19.1001 27.8984 20.9401V29.6601" stroke="#00AFB5" stroke-width="2" stroke-miterlimit="10"/>
</g>
<defs>
<clipPath id="clip0_1238_704">
<rect width="46.28" height="46.26" fill="white" transform="translate(0.859985)"/>
</clipPath>
</defs>
</svg>
