<svg width="24" height="24" viewBox="0 0 24 24" fill="none" xmlns="http://www.w3.org/2000/svg">
<g clip-path="url(#clip0_1608_2973)">
<path d="M23 11.5C23 11.5 17.8476 17 11.5053 17C5.16305 17 0 11.5 0 11.5C0 11.5 5.15243 6 11.4947 6C17.837 6 22.9894 11.5 22.9894 11.5H23Z" stroke="white" stroke-miterlimit="10"/>
<path d="M11.56 17.03C14.5147 17.03 16.91 14.6347 16.91 11.68C16.91 8.72523 14.5147 6.32996 11.56 6.32996C8.60524 6.32996 6.20996 8.72523 6.20996 11.68C6.20996 14.6347 8.60524 17.03 11.56 17.03Z" stroke="white" stroke-miterlimit="10"/>
<path d="M11.5504 8.81995C11.4304 8.81995 11.3104 8.83995 11.1904 8.85995C11.4104 9.14995 11.5504 9.51995 11.5504 9.90995C11.5504 10.8899 10.7604 11.6799 9.78043 11.6799C9.38043 11.6799 9.02043 11.5399 8.73043 11.3199C8.71043 11.4399 8.69043 11.5599 8.69043 11.6799C8.69043 13.2599 9.97043 14.5399 11.5504 14.5399C13.1304 14.5399 14.4104 13.2599 14.4104 11.6799C14.4104 10.0999 13.1304 8.81995 11.5504 8.81995Z" fill="white"/>
<path d="M4.21984 4.93005L2.33984 2.30005" stroke="white" stroke-miterlimit="10"/>
<path d="M18.9102 4.93005L20.7902 2.30005" stroke="white" stroke-miterlimit="10"/>
<path d="M11.5596 0.72998V3.97998" stroke="white" stroke-miterlimit="10"/>
<path d="M4.21984 18.17L2.33984 20.8" stroke="white" stroke-miterlimit="10"/>
<path d="M18.9102 18.17L20.7902 20.8" stroke="white" stroke-miterlimit="10"/>
<path d="M11.5596 22.37V19.12" stroke="white" stroke-miterlimit="10"/>
</g>
<defs>
<clipPath id="clip0_1608_2973">
<rect width="23.13" height="23.13" fill="white"/>
</clipPath>
</defs>
</svg>
