<svg width="389" height="457" viewBox="0 0 389 457" fill="none" xmlns="http://www.w3.org/2000/svg">
<path d="M278.613 118.068C248.681 147.997 232.365 187.939 232.815 230.244C233.265 268.385 247.781 305.402 273.436 333.643C299.092 361.883 335.776 380.448 374.372 384.048C382.586 384.836 389 391.699 389 400.025V440.98C389 450.318 381.123 457.632 371.896 456.957C347.028 455.157 322.835 449.306 299.88 439.517C272.649 427.928 248.118 411.502 227.076 390.462C219.874 383.261 213.235 375.723 207.159 367.734C201.083 359.746 188.367 359.408 181.953 367.734C175.539 376.06 169.238 383.261 162.036 390.462C140.994 411.502 116.464 428.041 89.2326 439.517C66.2774 449.193 42.0845 455.044 17.2164 456.957C7.9893 457.632 0.112525 450.206 0.112525 440.98V400.025C0.112525 391.699 6.41394 384.836 14.7408 384.048C53.337 380.448 89.0075 362.896 115.676 333.643C142.345 304.389 155.96 268.498 156.298 230.244C156.748 187.826 140.432 147.884 110.5 118.068C84.5065 92.078 50.974 76.3263 14.7408 72.9509C6.41394 72.1633 0 65.3 0 56.9741V16.132C0 6.79342 7.87677 -0.632417 17.1038 0.0426595C41.9719 1.84286 66.1649 7.69352 89.12 17.4821C116.351 29.0709 140.882 45.4978 161.924 66.5377C169.126 73.7385 175.765 81.2768 181.841 89.2652C187.917 97.2536 200.633 97.5912 207.047 89.2652C213.461 80.9393 219.762 73.7385 226.964 66.5377C248.006 45.4978 272.536 28.9584 299.767 17.4821C322.835 7.69352 347.028 1.95538 371.896 0.0426595C381.123 -0.632417 389 6.79342 389 16.0195V56.9741C389 65.3 382.586 72.1633 374.259 72.9509C338.139 76.3263 304.493 91.9655 278.5 118.068H278.613Z" fill="#D2F038"/>
</svg>
