<svg width="48" height="47" viewBox="0 0 48 47" fill="none" xmlns="http://www.w3.org/2000/svg">
<g clip-path="url(#clip0_1238_687)">
<path d="M24.8119 20.1802L13.7519 9.12023L2.67191 20.1802C2.35191 20.5002 1.83191 20.2802 1.83191 19.8202V16.1402L13.7519 4.24023L25.6719 16.1602V19.8402C25.6719 20.2802 25.1319 20.5002 24.8319 20.2002L24.8119 20.1802Z" stroke="#00AFB5" stroke-width="2" stroke-miterlimit="10"/>
<path d="M39.7535 23.0596H28.3135C27.8275 23.0596 27.4335 23.4536 27.4335 23.9396V31.3996C27.4335 31.8856 27.8275 32.2796 28.3135 32.2796H39.7535C40.2395 32.2796 40.6335 31.8856 40.6335 31.3996V23.9396C40.6335 23.4536 40.2395 23.0596 39.7535 23.0596Z" stroke="#00AFB5" stroke-width="2" stroke-miterlimit="10"/>
<path d="M8.75378 38.9805V27.5205C8.75378 24.7405 11.0138 22.4805 13.7938 22.4805C16.5738 22.4805 18.8338 24.7405 18.8338 27.5205V38.9805" stroke="#00AFB5" stroke-width="2" stroke-miterlimit="10"/>
<path d="M8.49597 29.1797H19.176" stroke="#00AFB5" stroke-width="2" stroke-miterlimit="10"/>
<path d="M8.49597 34.04H19.176" stroke="#00AFB5" stroke-width="2" stroke-miterlimit="10"/>
<path d="M13.7928 22.4805V38.8005" stroke="#00AFB5" stroke-width="2" stroke-miterlimit="10"/>
<path d="M5.11316 38.3003V17.8203" stroke="#00AFB5" stroke-width="2" stroke-miterlimit="10"/>
<path d="M23.2538 18.7998V38.2998" stroke="#00AFB5" stroke-width="2" stroke-miterlimit="10"/>
<path d="M3.75378 14.3405V5.98047H8.89378V9.04047" stroke="#00AFB5" stroke-width="2" stroke-miterlimit="10"/>
<path d="M16.5116 7.05957H45.9716V20.2596H25.2916" stroke="#00AFB5" stroke-width="2" stroke-miterlimit="10"/>
<path d="M44.41 38.8404V19.8604" stroke="#00AFB5" stroke-width="2" stroke-miterlimit="10"/>
<path d="M34.035 23.3604V32.1003" stroke="#00AFB5" stroke-width="2" stroke-miterlimit="10"/>
<path d="M2.29285 38.5996L46.4328 39.0196" stroke="#00AFB5" stroke-width="2" stroke-miterlimit="10"/>
</g>
<defs>
<clipPath id="clip0_1238_687">
<rect width="46.34" height="46.26" fill="white" transform="translate(0.829956)"/>
</clipPath>
</defs>
</svg>
