<svg width="48" height="47" viewBox="0 0 48 47" fill="none" xmlns="http://www.w3.org/2000/svg">
<g clip-path="url(#clip0_1238_677)">
<path d="M1.99304 16.4198H45.773V11.5398L17.553 7.75977H10.433L1.99304 11.2998V16.4198Z" stroke="#00AFB5" stroke-width="2" stroke-miterlimit="10"/>
<path d="M17.5268 1.2998H11.0868V44.8598H17.5268V1.2998Z" stroke="#00AFB5" stroke-width="2" stroke-miterlimit="10"/>
<path d="M22.5505 45.0801H5.43054" stroke="#00AFB5" stroke-width="2" stroke-miterlimit="10"/>
<path d="M36.6493 16V23.36" stroke="#00AFB5" stroke-width="2" stroke-miterlimit="10"/>
<path d="M43.389 23.7197C43.389 27.4597 40.349 30.4997 36.609 30.4997C32.869 30.4997 29.829 27.4597 29.829 23.7197H43.409H43.389Z" stroke="#00AFB5" stroke-width="2" stroke-miterlimit="10" stroke-linecap="round"/>
<path d="M39.9465 38.2602C39.9465 40.1002 38.4465 41.6002 36.6065 41.6002C34.7665 41.6002 33.2665 40.1002 33.2665 38.2602C33.2665 36.4202 34.7665 34.9202 36.6065 34.9202V31.7402" stroke="#00AFB5" stroke-width="2" stroke-miterlimit="10" stroke-linecap="round"/>
</g>
<defs>
<clipPath id="clip0_1238_677">
<rect width="46.26" height="46.26" fill="white" transform="translate(0.869995)"/>
</clipPath>
</defs>
</svg>
