<svg width="104" height="37" viewBox="0 0 104 37" fill="none" xmlns="http://www.w3.org/2000/svg">
<path fill-rule="evenodd" clip-rule="evenodd" d="M51.9992 36.3854C80.6754 36.3854 103.922 28.257 103.922 18.2301C103.922 8.20311 80.6754 0.074707 51.9992 0.074707C23.3229 0.074707 0.0761719 8.20311 0.0761719 18.2301C0.0761719 28.257 23.3229 36.3854 51.9992 36.3854ZM16.6737 22.9617V10.4492H14.6146V22.9617H16.6737ZM17.9339 18.7908C17.9339 21.3471 19.6554 23.1635 22.2714 23.1635C24.8874 23.1635 26.6088 21.3471 26.6088 18.7908C26.6088 16.2345 24.8874 14.4182 22.2714 14.4182C19.6554 14.4182 17.9339 16.2345 17.9339 18.7908ZM31.2169 22.7935C28.8709 22.7935 27.3013 21.0445 27.3013 18.6226C27.3013 16.1841 28.9047 14.3845 31.2843 14.3845C32.5164 14.3845 33.5628 14.906 34.0691 15.7805L34.1872 14.6536H36.01V22.5412C36.01 25.2826 34.2885 27.0484 31.5882 27.0484C29.2928 27.0484 27.622 25.6357 27.352 23.4662H29.4279C29.546 24.5594 30.4237 25.1816 31.7063 25.1816C33.1409 25.1816 34.0016 24.2735 34.0016 22.9112V21.4985C33.4784 22.3057 32.432 22.7935 31.2169 22.7935ZM37.0289 18.7908C37.0289 21.3471 38.7505 23.1635 41.3664 23.1635C43.9824 23.1635 45.7039 21.3471 45.7039 18.7908C45.7039 16.2345 43.9824 14.4182 41.3664 14.4182C38.7505 14.4182 37.0289 16.2345 37.0289 18.7908ZM49.1642 11.7274C49.1642 12.4169 48.6073 12.9551 47.9322 12.9551C47.2403 12.9551 46.717 12.4169 46.717 11.7274C46.717 11.0546 47.2403 10.5164 47.9322 10.5164C48.6073 10.5164 49.1642 11.0546 49.1642 11.7274ZM48.9617 14.6536V22.9617H46.9027V14.6536H48.9617ZM50.7656 26.8129H52.774V21.8181C53.2972 22.6757 54.428 23.1803 55.6769 23.1803C58.141 23.1803 59.6093 21.2967 59.5755 18.7067C59.5249 16.1 58.0228 14.4014 55.66 14.4014C54.3943 14.4014 53.2466 14.9564 52.7403 15.915L52.6221 14.6536H50.7656V26.8129ZM63.44 23.1803C61.4485 23.1803 60.1658 22.1207 60.0984 20.4726H61.9718C61.9718 21.1958 62.4949 21.6162 63.4063 21.6162C64.1658 21.6162 64.7903 21.3135 64.7903 20.6576C64.7903 20.1867 64.4527 19.9344 63.9126 19.7831L62.4612 19.4131C60.8578 18.9927 60.2334 18.1013 60.2334 17.0249C60.2334 15.4441 61.5667 14.4014 63.3557 14.4014C65.1615 14.4014 66.3936 15.4441 66.4611 17.0923H64.5877C64.5877 16.3691 64.0814 15.9318 63.305 15.9318C62.5624 15.9318 62.1068 16.3354 62.1068 16.9073C62.1068 17.4454 62.5287 17.664 63.1531 17.8322L64.6215 18.1854C65.9886 18.5217 66.7311 19.329 66.7311 20.5231C66.7311 22.1376 65.3978 23.1803 63.44 23.1803ZM71.0022 23.1803C72.1326 23.1803 73.2126 22.6589 73.7022 21.8853L73.8376 22.9617H75.7614V14.6536H73.7022V19.0095C73.7022 20.5063 73.1284 21.3471 71.7784 21.3471C70.7322 21.3471 70.0064 20.8426 70.0064 19.1272V14.6536H67.9472V19.8503C67.9472 21.8349 69.0273 23.1803 71.0022 23.1803ZM79.6379 18.1854V22.9617H77.5787V14.6536H79.4687L79.5702 15.5955C80.0598 14.8555 80.9375 14.4014 81.916 14.4014C83.2998 14.4014 84.2113 15.0068 84.6671 15.9822C85.0724 15.0068 86.0682 14.4014 87.334 14.4014C89.3593 14.4014 90.4221 15.6123 90.4221 17.5295V22.9617H88.4305V18.0004C88.4305 16.8232 87.7897 16.2009 86.794 16.2009C85.8148 16.2009 85.0386 16.84 85.0386 18.2022V22.9617H83.0298V18.0004C83.0298 16.8232 82.389 16.2009 81.4098 16.2009C80.4313 16.2009 79.6379 16.84 79.6379 18.1854Z" fill="black"/>
</svg>
