<svg width="108" height="41" viewBox="0 0 108 41" fill="none" xmlns="http://www.w3.org/2000/svg">
<path d="M22.0098 20.7909C22.0098 19.2942 22.9043 18.2515 24.2714 18.2515C25.6384 18.2515 26.5329 19.2942 26.5329 20.7909C26.5329 22.271 25.6384 23.3304 24.2714 23.3304C22.9043 23.3304 22.0098 22.271 22.0098 20.7909Z" fill="black"/>
<path d="M33.5717 18.1841C32.2721 18.1841 31.3945 19.1931 31.3945 20.5722C31.3945 21.9681 32.289 23.0108 33.5717 23.0108C34.9893 23.0108 35.9345 21.9513 35.9345 20.5722C35.9345 19.2099 34.9893 18.1841 33.5717 18.1841Z" fill="black"/>
<path d="M41.1056 20.7909C41.1056 19.2942 42.0001 18.2515 43.3672 18.2515C44.7342 18.2515 45.6287 19.2942 45.6287 20.7909C45.6287 22.271 44.7342 23.3304 43.3672 23.3304C42.0001 23.3304 41.1056 22.271 41.1056 20.7909Z" fill="black"/>
<path d="M54.8591 20.8078C54.8591 19.311 55.7705 18.2683 57.205 18.2683C58.6396 18.2683 59.5003 19.3278 59.5003 20.8078C59.5003 22.2877 58.6396 23.3304 57.205 23.3304C55.7705 23.3304 54.8591 22.3046 54.8591 20.8078Z" fill="black"/>
<path fill-rule="evenodd" clip-rule="evenodd" d="M53.9992 38.3854C82.6754 38.3854 105.922 30.257 105.922 20.2301C105.922 10.2031 82.6754 2.07471 53.9992 2.07471C25.3229 2.07471 2.07617 10.2031 2.07617 20.2301C2.07617 30.257 25.3229 38.3854 53.9992 38.3854ZM18.6737 24.9617V12.4492H16.6146V24.9617H18.6737ZM19.9339 20.7908C19.9339 23.3471 21.6554 25.1635 24.2714 25.1635C26.8874 25.1635 28.6088 23.3471 28.6088 20.7908C28.6088 18.2345 26.8874 16.4182 24.2714 16.4182C21.6554 16.4182 19.9339 18.2345 19.9339 20.7908ZM33.2169 24.7935C30.8709 24.7935 29.3013 23.0445 29.3013 20.6226C29.3013 18.1841 30.9047 16.3845 33.2843 16.3845C34.5164 16.3845 35.5628 16.906 36.0691 17.7805L36.1872 16.6536H38.01V24.5412C38.01 27.2826 36.2885 29.0484 33.5882 29.0484C31.2928 29.0484 29.622 27.6357 29.352 25.4662H31.4279C31.546 26.5594 32.4237 27.1816 33.7063 27.1816C35.1409 27.1816 36.0016 26.2735 36.0016 24.9112V23.4985C35.4784 24.3057 34.432 24.7935 33.2169 24.7935ZM39.0289 20.7908C39.0289 23.3471 40.7505 25.1635 43.3664 25.1635C45.9824 25.1635 47.7039 23.3471 47.7039 20.7908C47.7039 18.2345 45.9824 16.4182 43.3664 16.4182C40.7505 16.4182 39.0289 18.2345 39.0289 20.7908ZM51.1642 13.7274C51.1642 14.4169 50.6073 14.9551 49.9322 14.9551C49.2403 14.9551 48.717 14.4169 48.717 13.7274C48.717 13.0546 49.2403 12.5164 49.9322 12.5164C50.6073 12.5164 51.1642 13.0546 51.1642 13.7274ZM50.9617 16.6536V24.9617H48.9027V16.6536H50.9617ZM52.7656 28.8129H54.774V23.8181C55.2972 24.6757 56.428 25.1803 57.6769 25.1803C60.141 25.1803 61.6093 23.2967 61.5755 20.7067C61.5249 18.1 60.0228 16.4014 57.66 16.4014C56.3943 16.4014 55.2466 16.9564 54.7403 17.915L54.6221 16.6536H52.7656V28.8129ZM65.44 25.1803C63.4485 25.1803 62.1658 24.1207 62.0984 22.4726H63.9718C63.9718 23.1958 64.4949 23.6162 65.4063 23.6162C66.1658 23.6162 66.7903 23.3135 66.7903 22.6576C66.7903 22.1867 66.4527 21.9344 65.9126 21.7831L64.4612 21.4131C62.8578 20.9927 62.2334 20.1013 62.2334 19.0249C62.2334 17.4441 63.5667 16.4014 65.3557 16.4014C67.1615 16.4014 68.3936 17.4441 68.4611 19.0923H66.5877C66.5877 18.3691 66.0814 17.9318 65.305 17.9318C64.5624 17.9318 64.1068 18.3354 64.1068 18.9073C64.1068 19.4454 64.5287 19.664 65.1531 19.8322L66.6215 20.1854C67.9886 20.5217 68.7311 21.329 68.7311 22.5231C68.7311 24.1376 67.3978 25.1803 65.44 25.1803ZM73.0022 25.1803C74.1326 25.1803 75.2126 24.6589 75.7022 23.8853L75.8376 24.9617H77.7614V16.6536H75.7022V21.0095C75.7022 22.5063 75.1284 23.3471 73.7784 23.3471C72.7322 23.3471 72.0064 22.8426 72.0064 21.1272V16.6536H69.9472V21.8503C69.9472 23.8349 71.0273 25.1803 73.0022 25.1803ZM81.6379 20.1854V24.9617H79.5787V16.6536H81.4687L81.5702 17.5955C82.0598 16.8555 82.9375 16.4014 83.916 16.4014C85.2998 16.4014 86.2113 17.0068 86.6671 17.9822C87.0724 17.0068 88.0682 16.4014 89.334 16.4014C91.3593 16.4014 92.4221 17.6123 92.4221 19.5295V24.9617H90.4305V20.0004C90.4305 18.8232 89.7897 18.2009 88.794 18.2009C87.8148 18.2009 87.0386 18.84 87.0386 20.2022V24.9617H85.0298V20.0004C85.0298 18.8232 84.389 18.2009 83.4098 18.2009C82.4313 18.2009 81.6379 18.84 81.6379 20.1854Z" fill="black"/>
</svg>
