<svg width="140" height="32" viewBox="0 0 140 32" fill="none" xmlns="http://www.w3.org/2000/svg">
<g clip-path="url(#clip0_1238_573)">
<path d="M39.9141 23.1999H49.1546V20.6138H42.7318V8.53809H39.9141V23.1999Z" fill="black"/>
<path d="M54.7069 23.5052C55.8258 23.5052 56.8099 23.2608 57.6594 22.7721C58.5157 22.2766 59.1822 21.5944 59.6588 20.7256C60.1422 19.85 60.3839 18.8419 60.3839 17.7016C60.3839 16.568 60.1456 15.5668 59.6691 14.6979C59.1925 13.8223 58.5261 13.1367 57.6697 12.6412C56.8203 12.1457 55.8327 11.8979 54.7069 11.8979C53.6019 11.8979 52.6246 12.1423 51.7752 12.6311C50.9258 13.1198 50.2593 13.8019 49.7758 14.6776C49.2924 15.5464 49.0507 16.5544 49.0507 17.7016C49.0507 18.8351 49.2855 19.8398 49.7551 20.7154C50.2316 21.5843 50.8947 22.2664 51.7441 22.7619C52.5936 23.2575 53.5812 23.5052 54.7069 23.5052ZM54.7069 20.9191C53.8298 20.9191 53.1634 20.6306 52.7076 20.0536C52.2586 19.4699 52.0342 18.6859 52.0342 17.7016C52.0342 16.7445 52.2483 15.9707 52.6765 15.3801C53.1116 14.7828 53.7884 14.4841 54.7069 14.4841C55.5979 14.4841 56.2677 14.776 56.7166 15.3598C57.1724 15.9436 57.4004 16.7241 57.4004 17.7016C57.4004 18.6451 57.176 19.4189 56.727 20.0231C56.285 20.6203 55.6116 20.9191 54.7069 20.9191Z" fill="black"/>
<path d="M65.9558 23.5057C66.4807 23.5057 66.9641 23.4446 67.4062 23.3224C67.8551 23.2003 68.2625 23.0272 68.6286 22.8032V23.913C68.6424 24.3203 68.5353 24.6596 68.3074 24.9312C68.0864 25.2095 67.7895 25.4165 67.4165 25.5523C67.0436 25.6948 66.6464 25.7661 66.2252 25.7661C65.8315 25.7661 65.4655 25.6812 65.1271 25.5116C64.7956 25.3419 64.54 25.0941 64.3604 24.7683L61.7499 26.0104C62.1781 26.7232 62.7893 27.2968 63.5835 27.7312C64.3778 28.1724 65.2514 28.393 66.2045 28.393C67.0263 28.393 67.7895 28.2844 68.4939 28.0672C69.1983 27.8568 69.7923 27.5344 70.2757 27.0999C70.766 26.6655 71.101 26.1123 71.2806 25.4403C71.3427 25.2027 71.3841 24.9617 71.4049 24.7173C71.4325 24.4798 71.4463 24.2252 71.4463 23.9537V12.2039H68.9808V12.8148C68.6009 12.5229 68.1693 12.2989 67.6859 12.1428C67.2093 11.9799 66.681 11.8984 66.1008 11.8984C65.0304 11.8984 64.098 12.1496 63.3039 12.6519C62.5096 13.1542 61.8915 13.8432 61.4495 14.7188C61.0144 15.5876 60.7969 16.5821 60.7969 17.7021C60.7969 18.8017 61.0109 19.7893 61.4392 20.665C61.8742 21.5406 62.4785 22.233 63.252 22.7421C64.0255 23.2512 64.9268 23.5057 65.9558 23.5057ZM66.4116 21.0417C65.8039 21.0417 65.3067 20.8924 64.9199 20.5937C64.5332 20.2951 64.2465 19.8946 64.0601 19.3923C63.8736 18.8832 63.7803 18.3198 63.7803 17.7021C63.7803 17.0912 63.877 16.5346 64.0704 16.0323C64.2638 15.5232 64.5608 15.1193 64.9613 14.8206C65.3688 14.5152 65.8868 14.3624 66.5152 14.3624C67.3993 14.3624 68.0311 14.6713 68.411 15.289C68.7909 15.8999 68.9808 16.7043 68.9808 17.7021C68.9808 18.6999 68.7874 19.5076 68.4007 20.1253C68.0208 20.7363 67.3578 21.0417 66.4116 21.0417Z" fill="black"/>
<path d="M78.1387 23.5057C79.2575 23.5057 80.2417 23.2613 81.0911 22.7726C81.9473 22.2771 82.6139 21.5949 83.0901 20.7261C83.5736 19.8504 83.8153 18.8424 83.8153 17.7021C83.8153 16.5685 83.5777 15.5673 83.1007 14.6984C82.6245 13.8228 81.9579 13.1372 81.1015 12.6417C80.252 12.1462 79.2644 11.8984 78.1387 11.8984C77.0336 11.8984 76.0564 12.1428 75.207 12.6316C74.3575 13.1203 73.6911 13.8024 73.2076 14.6781C72.7242 15.5469 72.4824 16.5549 72.4824 17.7021C72.4824 18.8356 72.7172 19.8403 73.1869 20.7159C73.6634 21.5848 74.3264 22.2669 75.1759 22.7624C76.0254 23.258 77.013 23.5057 78.1387 23.5057ZM78.1387 20.9196C77.2616 20.9196 76.5951 20.6311 76.1393 20.0541C75.6904 19.4704 75.466 18.6864 75.466 17.7021C75.466 16.745 75.68 15.9712 76.1083 15.3806C76.5433 14.7833 77.2201 14.4846 78.1387 14.4846C79.0296 14.4846 79.6995 14.7765 80.1484 15.3603C80.6042 15.944 80.8321 16.7246 80.8321 17.7021C80.8321 18.6456 80.6076 19.4194 80.1587 20.0236C79.7168 20.6208 79.0434 20.9196 78.1387 20.9196Z" fill="black"/>
<path d="M85.0586 10.676H87.8765V8.23242H85.0586V10.676ZM85.0586 23.1997H87.8765V12.2033H85.0586V23.1997Z" fill="black"/>
<path d="M89.7188 28.0876H92.557V22.8032C92.9233 23.0272 93.327 23.2003 93.769 23.3224C94.2183 23.4446 94.705 23.5057 95.23 23.5057C96.2589 23.5057 97.1607 23.2512 97.934 22.7421C98.7072 22.233 99.3079 21.5406 99.7361 20.665C100.172 19.7893 100.389 18.8017 100.389 17.7021C100.389 16.5821 100.168 15.5876 99.7263 14.7188C99.2908 13.8432 98.6763 13.1542 97.8819 12.6519C97.0875 12.1496 96.1555 11.8984 95.0851 11.8984C94.5048 11.8984 93.9733 11.9799 93.4898 12.1428C93.0128 12.2989 92.5847 12.5229 92.2054 12.8148V12.2039H89.7188V28.0876ZM94.7742 21.0417C93.8349 21.0417 93.1724 20.7363 92.7849 20.1253C92.3983 19.5076 92.2054 18.6999 92.2054 17.7021C92.2054 16.7043 92.395 15.8999 92.7751 15.289C93.1618 14.6713 93.7934 14.3624 94.6708 14.3624C95.2992 14.3624 95.8136 14.5152 96.2141 14.8206C96.6219 15.1193 96.9222 15.5232 97.1151 16.0323C97.3089 16.5346 97.4057 17.0912 97.4057 17.7021C97.4057 18.3198 97.3121 18.8832 97.1257 19.3923C96.9393 19.8946 96.6528 20.2951 96.2662 20.5937C95.8796 20.8924 95.3822 21.0417 94.7742 21.0417Z" fill="black"/>
<path d="M105.494 23.5057C106.957 23.5057 108.104 23.1833 108.933 22.5384C109.761 21.8936 110.175 21.0078 110.175 19.881C110.175 19.0257 109.906 18.3504 109.368 17.8548C108.836 17.3593 107.931 16.9486 106.653 16.6228C105.783 16.4056 105.134 16.2291 104.706 16.0933C104.285 15.9576 104.005 15.8252 103.867 15.6963C103.735 15.5673 103.67 15.4078 103.67 15.2177C103.67 14.8987 103.825 14.6544 104.136 14.4846C104.454 14.3149 104.872 14.2471 105.389 14.281C106.487 14.3624 107.089 14.824 107.192 15.6657L110.072 15.1566C109.927 14.1588 109.43 13.368 108.58 12.7843C107.731 12.1937 106.647 11.8984 105.328 11.8984C103.974 11.8984 102.893 12.2107 102.085 12.8352C101.277 13.4596 100.873 14.3013 100.873 15.3603C100.873 16.202 101.153 16.8672 101.712 17.3559C102.271 17.8379 103.235 18.2519 104.602 18.5981C105.411 18.8085 106.004 18.9782 106.384 19.1072C106.771 19.2361 107.02 19.3685 107.13 19.5043C107.24 19.6332 107.296 19.8064 107.296 20.0236C107.296 20.3697 107.157 20.6412 106.881 20.8381C106.605 21.0281 106.212 21.1232 105.7 21.1232C105.078 21.1232 104.564 20.9772 104.157 20.6853C103.757 20.3935 103.497 19.9896 103.38 19.4737L100.5 19.9013C100.686 21.0485 101.211 21.9377 102.075 22.569C102.945 23.1935 104.085 23.5057 105.494 23.5057Z" fill="black"/>
<path d="M115.374 23.5259C116.182 23.5259 116.886 23.3935 117.488 23.1287C118.088 22.864 118.592 22.5111 119 22.0699V23.2H121.486V12.2036H118.647V17.7833C118.647 18.4621 118.568 19.0119 118.409 19.4327C118.258 19.8468 118.061 20.1624 117.819 20.3796C117.577 20.5901 117.318 20.7326 117.041 20.8073C116.766 20.8819 116.507 20.9193 116.265 20.9193C115.664 20.9193 115.198 20.7869 114.867 20.5222C114.542 20.2575 114.307 19.9283 114.162 19.5346C114.017 19.1408 113.931 18.7506 113.903 18.3636C113.875 17.9699 113.861 17.6475 113.861 17.3963V12.2036H111.002V18.3739C111.002 18.5571 111.016 18.849 111.043 19.2495C111.071 19.6499 111.151 20.0946 111.282 20.5833C111.413 21.0652 111.63 21.5302 111.935 21.9782C112.246 22.4262 112.677 22.7961 113.23 23.088C113.782 23.3799 114.497 23.5259 115.374 23.5259Z" fill="black"/>
<path d="M123.117 23.2001H125.955V16.5411C125.955 15.9099 126.131 15.3974 126.483 15.0037C126.842 14.6032 127.315 14.403 127.903 14.403C128.518 14.403 128.998 14.6066 129.343 15.0139C129.695 15.4144 129.871 15.9778 129.871 16.7041V23.2001H132.689V16.5411C132.689 15.9099 132.865 15.3974 133.217 15.0037C133.576 14.6032 134.049 14.403 134.636 14.403C135.251 14.403 135.731 14.6066 136.076 15.0139C136.428 15.4144 136.605 15.9778 136.605 16.7041V23.2001H139.422V15.971C139.422 14.7695 139.094 13.7989 138.438 13.059C137.789 12.3123 136.826 11.939 135.548 11.939C134.83 11.939 134.17 12.0917 133.569 12.3971C132.968 12.7026 132.489 13.1201 132.129 13.6495C131.839 13.1337 131.425 12.7196 130.886 12.4074C130.347 12.0951 129.677 11.939 128.876 11.939C128.199 11.939 127.578 12.0714 127.012 12.3361C126.445 12.594 125.976 12.9504 125.603 13.4051V12.2037H123.117V23.2001Z" fill="black"/>
<path d="M16.2791 0C7.28838 0 0 7.16344 0 16C8.99069 16 16.2791 8.83656 16.2791 0Z" fill="black"/>
<path d="M16.2791 32C25.2697 32 32.5581 24.8366 32.5581 16C23.5674 16 16.2791 23.1634 16.2791 32Z" fill="black"/>
<path d="M16.2791 0C25.2697 0 32.5581 7.16344 32.5581 16C23.5674 16 16.2791 8.83656 16.2791 0Z" fill="black"/>
<path d="M16.2791 32C7.28838 32 -7.8599e-07 24.8366 0 16C8.99069 16 16.2791 23.1634 16.2791 32Z" fill="black"/>
</g>
<defs>
<clipPath id="clip0_1238_573">
<rect width="140" height="32" fill="white"/>
</clipPath>
</defs>
</svg>
