<svg width="48" height="47" viewBox="0 0 48 47" fill="none" xmlns="http://www.w3.org/2000/svg">
<g clip-path="url(#clip0_1238_661)">
<path d="M44.6876 42.1797H1.88757V45.5197H44.6876V42.1797Z" stroke="#00AFB5" stroke-width="2" stroke-miterlimit="10"/>
<path d="M13.1298 13.7998L14.7298 42.3598" stroke="#00AFB5" stroke-width="2" stroke-miterlimit="10"/>
<path d="M4.34851 42.3598L5.94851 13.7998" stroke="#00AFB5" stroke-width="2" stroke-miterlimit="10"/>
<path d="M13.4282 10.7998H5.6682C5.31474 10.7998 5.0282 11.0863 5.0282 11.4398V13.3598C5.0282 13.7133 5.31474 13.9998 5.6682 13.9998H13.4282C13.7817 13.9998 14.0682 13.7133 14.0682 13.3598V11.4398C14.0682 11.0863 13.7817 10.7998 13.4282 10.7998Z" stroke="#00AFB5" stroke-width="2" stroke-miterlimit="10"/>
<path d="M5.5907 19.3398H13.2307" stroke="#00AFB5" stroke-width="2" stroke-miterlimit="10"/>
<path d="M4.97351 24H13.7535" stroke="#00AFB5" stroke-width="2" stroke-miterlimit="10"/>
<path d="M7.06726 1.28027C9.90726 1.28027 9.90726 3.32027 12.7473 3.32027C15.5873 3.32027 15.5873 1.28027 18.4273 1.28027C21.2673 1.28027 21.2673 3.32027 24.1073 3.32027" stroke="#00AFB5" stroke-width="2" stroke-miterlimit="10"/>
<path d="M7.06726 4.36035C9.90726 4.36035 9.90726 6.40035 12.7473 6.40035C15.5873 6.40035 15.5873 4.36035 18.4273 4.36035C21.2673 4.36035 21.2673 6.40035 24.1073 6.40035" stroke="#00AFB5" stroke-width="2" stroke-miterlimit="10"/>
<path d="M13.5516 28.3804L22.8716 23.9004V28.6604L32.9116 24.1004V28.2604L42.7516 24.2404V42.3204" stroke="#00AFB5" stroke-width="2" stroke-miterlimit="10"/>
<path d="M38.9932 31.2197L35.6532 32.6397" stroke="#00AFB5" stroke-width="2" stroke-miterlimit="10" stroke-linecap="round"/>
<path d="M29.3682 31.2197L26.0282 32.6397" stroke="#00AFB5" stroke-width="2" stroke-miterlimit="10" stroke-linecap="round"/>
<path d="M19.5913 31.2197L16.2313 32.6397" stroke="#00AFB5" stroke-width="2" stroke-miterlimit="10" stroke-linecap="round"/>
</g>
<defs>
<clipPath id="clip0_1238_661">
<rect width="46.26" height="46.52" fill="white" transform="translate(0.869995)"/>
</clipPath>
</defs>
</svg>
