<svg width="24" height="24" viewBox="0 0 24 24" fill="none" xmlns="http://www.w3.org/2000/svg">
<g clip-path="url(#clip0_1608_3010)">
<path d="M11.5899 15.43C14.8594 15.43 17.5099 12.7796 17.5099 9.51003C17.5099 6.2405 14.8594 3.59003 11.5899 3.59003C8.3204 3.59003 5.66992 6.2405 5.66992 9.51003C5.66992 12.7796 8.3204 15.43 11.5899 15.43Z" fill="white" stroke="white" stroke-miterlimit="10"/>
<path d="M16.5696 15.65C15.8796 15.63 15.2396 16.03 14.9396 16.65C14.4796 17.62 13.2596 17.95 12.3696 17.35C11.7996 16.96 11.0496 16.95 10.4596 17.31C9.54958 17.88 8.33958 17.5 7.91958 16.51C7.64958 15.87 7.02958 15.46 6.32958 15.45C5.25958 15.43 4.44958 14.46 4.62958 13.4C4.73958 12.72 4.44958 12.03 3.86958 11.65C2.97958 11.06 2.81958 9.80003 3.53958 9.01003C4.00958 8.50003 4.12958 7.76003 3.84958 7.13003C3.41958 6.15003 3.96958 5.01003 4.99958 4.73003C5.66958 4.55003 6.16958 4.00003 6.27958 3.31003C6.44958 2.25003 7.51958 1.59003 8.54958 1.92003C9.20958 2.13003 9.92958 1.93003 10.3896 1.42003C11.1096 0.620028 12.3696 0.640028 13.0496 1.47003C13.4896 2.00003 14.1996 2.23003 14.8696 2.04003C15.9096 1.75003 16.9496 2.46003 17.0796 3.52003C17.1596 4.21003 17.6396 4.78003 18.2996 4.99003C19.3296 5.31003 19.8296 6.47003 19.3596 7.43003C19.0596 8.05003 19.1496 8.80003 19.5896 9.33003C20.2796 10.15 20.0796 11.4 19.1596 11.96C18.5696 12.32 18.2396 12.99 18.3296 13.68C18.4696 14.75 17.6196 15.68 16.5496 15.66L16.5696 15.65Z" stroke="white" stroke-miterlimit="10"/>
<path d="M11.6101 5.35999L12.6101 8.43999H15.8501L13.2301 10.34L14.2301 13.42L11.6101 11.52L8.99012 13.42L9.99012 10.34L7.37012 8.43999H10.6101L11.6101 5.35999Z" fill="#097980"/>
<path d="M8.56039 17.38L6.51039 21.85L5.70039 18.75L2.65039 20.08L5.07039 14.81" stroke="white" stroke-miterlimit="10"/>
<path d="M14.46 17.15L16.61 21.85L17.42 18.75L20.47 20.08L18.04 14.78" stroke="white" stroke-miterlimit="10"/>
</g>
<defs>
<clipPath id="clip0_1608_3010">
<rect width="23.13" height="23.16" fill="white" transform="translate(0 0.320007)"/>
</clipPath>
</defs>
</svg>
