<svg width="186" height="186" viewBox="0 0 186 186" fill="none" xmlns="http://www.w3.org/2000/svg">
<g clip-path="url(#clip0_10901_1541)">
<path d="M73.3179 74.415L74.8929 74.1C75.0329 75.05 75.2929 75.74 75.6729 76.17C76.0529 76.6 76.6779 76.815 77.5479 76.815C78.2579 76.815 78.8029 76.665 79.1829 76.365C79.5729 76.065 79.7679 75.68 79.7679 75.21C79.7679 74.74 79.5929 74.37 79.2429 74.1C78.8929 73.83 78.1179 73.505 76.9179 73.125C75.7779 72.765 74.9629 72.355 74.4729 71.895C73.9929 71.425 73.7529 70.83 73.7529 70.11C73.7529 69.33 74.0579 68.665 74.6679 68.115C75.2779 67.555 76.1029 67.275 77.1429 67.275C78.1229 67.275 78.9529 67.52 79.6329 68.01C80.3129 68.5 80.7279 69.22 80.8779 70.17L79.3779 70.5C79.2479 69.92 79.0129 69.475 78.6729 69.165C78.3329 68.845 77.8229 68.685 77.1429 68.685C76.5229 68.685 76.0529 68.82 75.7329 69.09C75.4129 69.36 75.2529 69.7 75.2529 70.11C75.2529 70.48 75.4129 70.78 75.7329 71.01C76.0529 71.23 76.7729 71.525 77.8929 71.895C79.2029 72.335 80.0879 72.785 80.5479 73.245C81.0179 73.705 81.2529 74.33 81.2529 75.12C81.2529 76.01 80.9179 76.75 80.2479 77.34C79.5879 77.93 78.6829 78.225 77.5329 78.225C76.2929 78.225 75.3179 77.905 74.6079 77.265C73.8979 76.615 73.4679 75.665 73.3179 74.415ZM84.4385 72.99V75.21C84.4385 75.67 84.6185 76.07 84.9785 76.41C85.3485 76.74 85.8135 76.905 86.3735 76.905C87.0935 76.905 87.6535 76.655 88.0535 76.155C88.4635 75.645 88.6685 74.935 88.6685 74.025C88.6685 73.115 88.4635 72.41 88.0535 71.91C87.6535 71.41 87.0935 71.16 86.3735 71.16C85.7935 71.16 85.3235 71.345 84.9635 71.715C84.6135 72.085 84.4385 72.51 84.4385 72.99ZM82.9835 81.375V70.05H84.3785V70.815H84.4085C84.5085 70.685 84.6385 70.555 84.7985 70.425C84.9585 70.295 85.2085 70.165 85.5485 70.035C85.8885 69.895 86.2535 69.825 86.6435 69.825C87.6135 69.825 88.4335 70.21 89.1035 70.98C89.7835 71.74 90.1235 72.755 90.1235 74.025C90.1235 75.315 89.7985 76.34 89.1485 77.1C88.4985 77.85 87.6685 78.225 86.6585 78.225C86.1185 78.225 85.6585 78.115 85.2785 77.895C84.8985 77.675 84.6285 77.455 84.4685 77.235H84.4385V81.375H82.9835ZM97.3923 75.465L98.4873 76.29C98.1773 76.85 97.7473 77.315 97.1973 77.685C96.6473 78.045 95.9773 78.225 95.1873 78.225C94.0873 78.225 93.1923 77.845 92.5023 77.085C91.8123 76.315 91.4673 75.295 91.4673 74.025C91.4673 72.755 91.8073 71.74 92.4873 70.98C93.1773 70.21 94.0523 69.825 95.1123 69.825C96.1723 69.825 97.0373 70.205 97.7073 70.965C98.3773 71.715 98.7123 72.735 98.7123 74.025V74.46H92.9523C92.9723 75.17 93.1673 75.76 93.5373 76.23C93.9173 76.69 94.4573 76.92 95.1573 76.92C95.4873 76.92 95.7773 76.875 96.0273 76.785C96.2873 76.695 96.5073 76.56 96.6873 76.38C96.8773 76.19 97.0123 76.04 97.0923 75.93C97.1723 75.82 97.2723 75.665 97.3923 75.465ZM92.9673 73.32H97.2573C97.2273 72.71 97.0373 72.195 96.6873 71.775C96.3373 71.345 95.8123 71.13 95.1123 71.13C94.4423 71.13 93.9223 71.36 93.5523 71.82C93.1823 72.27 92.9873 72.77 92.9673 73.32ZM100.591 78V70.05H102.016V70.815H102.046C102.256 70.535 102.561 70.3 102.961 70.11C103.361 69.92 103.781 69.825 104.221 69.825C105.091 69.825 105.786 70.09 106.306 70.62C106.826 71.15 107.086 71.875 107.086 72.795V78H105.616V73.215C105.616 71.855 105.056 71.175 103.936 71.175C103.366 71.175 102.906 71.34 102.556 71.67C102.216 71.99 102.046 72.435 102.046 73.005V78H100.591ZM114.494 75.165V73.035C114.494 72.545 114.319 72.11 113.969 71.73C113.619 71.35 113.149 71.16 112.559 71.16C111.849 71.16 111.299 71.41 110.909 71.91C110.529 72.4 110.339 73.105 110.339 74.025C110.339 74.945 110.529 75.655 110.909 76.155C111.289 76.655 111.839 76.905 112.559 76.905C113.129 76.905 113.594 76.735 113.954 76.395C114.314 76.045 114.494 75.635 114.494 75.165ZM114.614 78V77.235H114.584C114.004 77.895 113.254 78.225 112.334 78.225C111.284 78.225 110.444 77.845 109.814 77.085C109.194 76.325 108.884 75.305 108.884 74.025C108.884 72.755 109.214 71.74 109.874 70.98C110.544 70.21 111.359 69.825 112.319 69.825C113.179 69.825 113.894 70.155 114.464 70.815H114.494V67.05H115.949V78H114.614Z" fill="black"/>
<path d="M64.9029 117.12V114.88C62.3029 114.24 60.7829 112.24 60.7829 109.44V105.08H65.6629V109.16C65.6629 110.2 66.0629 110.84 66.9429 110.84C67.8229 110.84 68.1829 110.2 68.1829 109.16V107.08C68.1829 105.92 67.9029 105.44 67.2229 104.8L63.0629 101.32C61.5829 100.16 60.8229 98.92 60.8229 96.64V93.8C60.8229 91.04 62.3429 89.08 64.9029 88.4V86.16H68.7029V88.32C71.5029 88.88 73.1429 90.92 73.1429 93.84V97.64H68.3029V94.12C68.3029 93.08 67.9429 92.44 67.0629 92.44C66.1829 92.44 65.7829 93.08 65.7829 94.12V95.6C65.7829 96.68 66.0629 97.16 66.7429 97.8L70.9029 101.28C72.3829 102.44 73.1829 103.68 73.1829 105.96V109.48C73.1829 112.36 71.4629 114.36 68.7029 114.92V117.12H64.9029ZM82.5348 116H77.6148V94.52H73.9748V90.68C77.0548 90.64 78.4948 89.96 78.9748 87.2H82.5348V116ZM84.5404 116V110.44H89.5004V115.52C89.5004 118.4 87.7004 120.04 84.5404 120.16V118C85.8204 117.84 86.3404 117.24 86.3404 116H84.5404ZM96.4857 91.48H92.2857V96.12H87.9257V87.28H101.086V91.76C97.1257 99.28 96.9257 106.88 96.9257 116H91.7657C91.7657 105.96 93.1257 98.2 96.4857 91.48ZM106.157 103.36V99.12H107.997C108.877 99.12 109.357 98.56 109.357 97.48V93C109.357 91.92 108.917 91.24 108.037 91.24C107.157 91.24 106.717 91.92 106.717 93V98.08H101.917V92.68C101.917 89.2 104.237 86.96 108.037 86.96C111.797 86.96 114.317 89.2 114.317 92.68V97.44C114.317 99.2 113.477 100.68 111.837 101.24C113.597 101.96 114.437 103.44 114.437 105.24V110.6C114.437 114.08 111.877 116.32 108.117 116.32C104.317 116.32 101.957 114.08 101.957 110.6V104.8H106.837V110.28C106.837 111.36 107.237 112.04 108.117 112.04C108.997 112.04 109.437 111.36 109.437 110.28V105.28C109.437 104.04 108.957 103.36 107.797 103.36H106.157ZM128.624 110.6C128.624 114.08 126.104 116.32 122.304 116.32C118.504 116.32 115.944 114.08 115.944 110.6V92.68C115.944 89.2 118.544 86.96 122.304 86.96C126.104 86.96 128.384 89.2 128.384 92.68V97.72H123.544V93C123.544 91.92 123.144 91.24 122.264 91.24C121.384 91.24 120.944 91.92 120.944 93V100.48C121.504 99.8 122.584 99.12 124.064 99.12C126.744 99.12 128.624 101.08 128.624 104.24V110.6ZM122.304 112.04C123.184 112.04 123.624 111.36 123.624 110.28V104.84C123.624 103.8 123.184 103.12 122.304 103.12C121.424 103.12 120.944 103.8 120.944 104.84V110.28C120.944 111.36 121.424 112.04 122.304 112.04Z" fill="black"/>
<path d="M93.1016 25.2312V3.91602C76.5812 3.91602 60.9627 8.02172 46.6531 16.1146L57.586 34.6711C68.035 28.7227 80.1558 25.2851 93.1016 25.242V25.2312Z" fill="#097980"/>
<path d="M57.5857 34.6605L46.6528 16.104C28.9665 26.115 17.5386 38.3352 8.90442 56.4714L28.7245 65.5233C34.9169 52.5812 45.0359 41.8051 57.5857 34.6605Z" fill="#D2F038"/>
<path d="M22.0163 95.1359C22.0163 84.543 24.4361 74.5104 28.7367 65.5231L8.91658 56.4712C-3.20424 81.9352 -2.96227 109.576 9.60951 134.835L29.0886 125.525C24.5571 116.333 22.0163 106.031 22.0163 95.1467V95.1359Z" fill="#5CD93D"/>
<path d="M93.3664 165.051C65.0662 165.051 40.6265 148.919 29.0887 125.524L9.60956 134.835C27.5818 170.935 65.4401 190.655 106.037 185.063L103.067 164.394C99.8998 164.814 96.6661 165.051 93.3664 165.051Z" fill="#FF4242"/>
<path d="M93.103 3.91602V25.2312C93.191 25.2312 93.279 25.2312 93.367 25.2312C132.776 25.2312 164.728 56.5358 164.728 95.1467C164.728 130.536 137.891 159.76 103.068 164.394L106.038 185.063C152.728 178.629 186 141.128 186 94.9312C186 44.6605 144.413 3.91602 93.103 3.91602Z" fill="#00AFB5"/>
</g>
<defs>
<clipPath id="clip0_10901_1541">
<rect width="186" height="186" fill="white"/>
</clipPath>
</defs>
</svg>
