<svg width="25" height="25" viewBox="0 0 25 25" fill="none" xmlns="http://www.w3.org/2000/svg">
<path d="M20.9117 18.6445L11.1517 8.88448C12.0417 6.92448 11.6917 4.54448 10.0817 2.92448C8.37165 1.21448 5.79165 0.934482 3.77165 2.03448L7.35165 5.61448L6.94165 7.23448L5.24165 7.71448L1.66165 4.13448C0.551653 6.15448 0.831653 8.73448 2.55165 10.4445C4.16165 12.0545 6.55165 12.4045 8.51165 11.5145L18.2717 21.2745C19.0017 22.0045 20.1917 22.0045 20.9217 21.2745C21.6517 20.5445 21.6517 19.3545 20.9217 18.6245L20.9117 18.6445Z" stroke="white" stroke-miterlimit="10"/>
<path d="M18.8114 16.7567C21.6769 16.7567 23.9998 14.4338 23.9998 11.5684C23.9998 8.70291 21.6769 6.38 18.8114 6.38C15.946 6.38 13.623 8.70291 13.623 11.5684C13.623 14.4338 15.946 16.7567 18.8114 16.7567Z" fill="white"/>
<path d="M18.812 14.4731L18.812 8.66361" stroke="#097980" stroke-miterlimit="10"/>
<path d="M15.9072 11.5684L21.7167 11.5684" stroke="#097980" stroke-miterlimit="10"/>
</svg>
